@startuml
title
    Keyple - Adapter of keyple-service-java-lib - 4.0.0 (2026-07-08)
end title

' == THEME ==

'Couleurs issues de : https://htmlcolorcodes.com/fr/tableau-de-couleur/tableau-de-couleur-design-plat/
!define C_GREY1 F8F9F9
!define C_GREY2 F2F3F4
!define C_GREY3 E5E7E9
!define C_GREY4 D7DBDD
!define C_GREY5 CACFD2
!define C_GREY6 BDC3C7
!define C_LINK 3498DB
!define C_USE 27AE60

' -- Styles that don't work with new version of plantuml --
skinparam stereotypeABorderColor #A9DCDF
skinparam stereotypeIBorderColor #B4A7E5
skinparam stereotypeCBorderColor #ADD1B2
skinparam stereotypeEBorderColor #EB93DF
' -- END --

skinparam ClassBorderThickness 2
skinparam ArrowThickness 2

' Yellow
skinparam ClassBackgroundColor #FEFECE
skinparam ClassBorderColor #D4AC0D
' Red
skinparam ClassBackgroundColor<<red>> #FDEDEC
skinparam ClassBorderColor<<red>> #E74C3C
hide <<red>> stereotype
' Purple
skinparam ClassBackgroundColor<<purple>> #F4ECF7
skinparam ClassBorderColor<<purple>> #8E44AD
hide <<purple>> stereotype
' blue
skinparam ClassBackgroundColor<<blue>> #EBF5FB
skinparam ClassBorderColor<<blue>> #3498DB
hide <<blue>> stereotype
' Green
skinparam ClassBackgroundColor<<green>> #E9F7EF
skinparam ClassBorderColor<<green>> #27AE60
hide <<green>> stereotype
' Grey
skinparam ClassBackgroundColor<<grey>> #EAECEE
skinparam ClassBorderColor<<grey>> #2C3E50
hide <<grey>> stereotype

' == CONTENT ==

legend top
    __Colors legend__ :
    * __External public API references__ :
    ** <back:cyan>**keyple-common-java-api**</back>
    ** <back:yellow>**keypop-reader-java-api**</back>
    ** <back:lightGreen>**keypop-card-java-api**</back>
    ** <back:gold>**com.google.code.gson**</back>
    * __External private API references__ :
    ** <back:pink>**keyple-plugin-java-api**</back>
    ** <back:plum>**keyple-distributed-remote-java-api**</back>
    ** <back:orange>**keyple-distributed-local-java-api**</back>
end legend

package "org.eclipse.keyple.core.service" as service {
    +class "**final** SmartCardServiceProvider" as SmartCardServiceProvider <<green>> {
        __
        ...
    }
    ' ADAPTERS
    ~enum MultiSelectionProcessing {
        FIRST_MATCH
        PROCESS_ALL
    }
    ~class "**final** JsonAdapter" as JsonAdapter {
        __
        ...
    }
    ~class "**final** InternalDto" as InternalDto {
        __
        ...
    }
    ~class "**final** InternalLegacyDto" as InternalLegacyDto {
        __
        ...
    }
    ~interface "InternalCardSelector" as InternalCardSelector {
        +String getLogicalProtocolName ()
        +String getPowerOnDataRegex ()
    }
    ~interface "InternalIsoCardSelector" as InternalIsoCardSelector extends InternalCardSelector {
        +byte[] getAid ()
        +<back:yellow>CommonIsoCardSelector.FileOccurrence</back> getFileOccurrence ()
        +<back:yellow>CommonIsoCardSelector.FileControlInformation</back> getFileControlInformation ()
    }
    ~class "<<<back:yellow>BasicCardSelector</back>>>\n**final** BasicCardSelectorAdapter" as BasicCardSelectorAdapter implements InternalCardSelector {
        __
        ...
    }
    ~class "<<<back:yellow>IsoCardSelector</back>>>\n**final** IsoCardSelectorAdapter" as IsoCardSelectorAdapter implements InternalIsoCardSelector {
        __
        ...
    }
    ~class "<color:blue><<<back:yellow>CardDetectionSettings</back>>>\n<color:blue>**final** CardDetectionSettingsAdapter" as CardDetectionSettingsAdapter {
        __
        ...
    }
    ~class "<<SmartCardService>>\n<color:blue><<<back:yellow>CardReaderProvider</back>>>\n**final** SmartCardServiceAdapter" as SmartCardServiceAdapter {
        --
        ~{static} SmartCardServiceAdapter getInstance ()

        ~boolean isAutomaticStatusCodeHandlingEnabled()
        -- **SmartCardService** --
        +Plugin registerPlugin (<back:cyan>KeyplePluginExtensionFactory</back> pluginFactory)
        +void unregisterPlugin (String pluginName)
        +Set<String> getPluginNames ()
        +Set<Plugin> getPlugins ()
        +Plugin getPlugin (String pluginName)
        +Plugin getPlugin (<back:yellow>CardReader</back> reader)
        +void checkCardExtension (<back:cyan>KeypleCardExtension</back> cardExtension)
        +DistributedLocalService registerDistributedLocalService (<back:cyan>KeypleDistributedLocalServiceExtensionFactory</back> distributedLocalServiceFactory)
        +void unregisterDistributedLocalService (String distributedLocalServiceName)
        +DistributedLocalService getDistributedLocalService (String distributedLocalServiceName)
        +<back:yellow>ReaderApiFactory</back> getReaderApiFactory ()
        -- **CardReaderProvider** --
        +<color:blue>Set<String> getReaderNames ()
        +<color:blue>Set<<Back:Yellow>CardReader</Back>> getReaders ()
        +<back:yellow>CardReader</back> getReader (String readerName)
        +<back:yellow>CardReader</back> findReader (String readerNameRegex)
    }
    ' PLUGIN
    ~abstract class "<<Plugin>>\nAbstractPluginAdapter" as AbstractPluginAdapter {
        ~{static} **final** String REMOTE_READER_NAME_SUFFIX
        --
        ~AbstractPluginAdapter (String pluginName, <back:cyan>KeyplePluginExtension</back> pluginExtension)

        ~**final** LocalReaderAdapter buildLocalReaderAdapter (ReaderSpi readerSpi)
        ~**final** Map<String, <Back:Yellow>CardReader</Back>> getReadersMap ()
        ~**final** void checkStatus ()
        ~void register ()
        ~void unregister ()
        -- **Plugin** --
        +**final** String getName ()
        +**final** <T extends <back:cyan>KeyplePluginExtension</back>> T getExtension (Class<T> pluginExtensionClass)
        +**final** <T extends <back:cyan>KeypleReaderExtension</back>> T getReaderExtension (Class<T> readerExtensionClass, String readerName)
        +**final** Set<String> getReaderNames ()
        +**final** Set<<Back:Yellow>CardReader</Back>> getReaders ()
        +**final** <Back:Yellow>CardReader</Back> getReader (String readerName)
        +**final** <back:yellow>CardReader</back> findReader (String readerNameRegex)
    }
    ~class LocalPluginAdapter extends AbstractPluginAdapter {
        --
        ~LocalPluginAdapter (<back:pink>PluginSpi</back> pluginSpi)
        -- **AbstractPluginAdapter** --
        ~void register ()
        ~void unregister ()
    }
    ~class "<<<back:plum>RemotePluginApi</back>>>\nRemotePluginAdapter" as RemotePluginAdapter extends AbstractPluginAdapter {
        --
        ~RemotePluginAdapter (<back:plum>RemotePluginSpi</back> remotePluginSpi)
        -- **AbstractPluginAdapter** --
        ~**final** void register ()
        ~void unregister ()
        -- **RemotePluginApi** --
        +**final** void onReaderEvent (String jsonData)
    }
    ' POOL PLUGINS
    ~class "<<PoolPlugin>>\n**final** LocalPoolPluginAdapter" as LocalPoolPluginAdapter extends AbstractPluginAdapter {
        --
        ~LocalPoolPluginAdapter (<back:pink>PoolPluginSpi</back> poolPluginSpi)
        -- **AbstractPluginAdapter** --
        ~void unregister ()
        -- **PoolPlugin** --
        +SortedSet<String> getReaderGroupReferences ()
        +<Back:Yellow>CardReader</Back> allocateReader (String readerGroupReference)
        +<back:yellow>SmartCard</back> getSelectedSmartCard (<back:yellow>CardReader</back> <back:yellow>cardReader</back>)
        +void releaseReader (<back:yellow>CardReader</back> <back:yellow>cardReader</back>)
    }
    ~class "<<PoolPlugin>>\n**final** RemotePoolPluginAdapter" as RemotePoolPluginAdapter extends AbstractPluginAdapter {
        --
        ~RemotePoolPluginAdapter (<back:plum>RemotePoolPluginSpi</back> remotePoolPluginSpi)
        -- **AbstractPluginAdapter** --
        ~void register ()
        ~void unregister ()
        -- **PoolPlugin** --
        +SortedSet<String> getReaderGroupReferences ()
        +<Back:Yellow>CardReader</Back> allocateReader (String readerGroupReference)
        +<back:yellow>SmartCard</back> getSelectedSmartCard (<back:yellow>CardReader</back> <back:yellow>cardReader</back>)
        +void releaseReader (<back:yellow>CardReader</back> <back:yellow>cardReader</back>)
    }
    ' OBSERVATION MANAGER
    ~class "**final** ObservationManagerAdapter\n\n**T** : PluginObserverSpi\nor <back:yellow>CardReaderObserverSpi</back>\n\n**S** : PluginObservationExceptionHandlerSpi\nor <back:yellow>CardReaderObservationExceptionHandlerSpi</back>" as ObservationManagerAdapter<T, S> {
        --
        ~ObservationManagerAdapter (String pluginName, String readerName)

        ~void setObservationExceptionHandler (S exceptionHandler)
        ~void addObserver (T observer)
        ~void removeObserver (T observer)
        ~void clearObservers ()
        ~int countObservers ()

        ~Set<T> getObservers ()
        ~S getObservationExceptionHandler ()
    }
    ' OBSERVABLE PLUGINS
    ~abstract class "<<ObservablePlugin>>\nAbstractObservableLocalPluginAdapter" as AbstractObservableLocalPluginAdapter extends LocalPluginAdapter {
        --
        ~AbstractObservableLocalPluginAdapter (<back:pink>PluginSpi</back> pluginSpi)

        ~**final** ObservationManagerAdapter<PluginObserverSpi, PluginObservationExceptionHandlerSpi> getObservationManager ()
        ~**final** void notifyObservers (PluginEvent event)
        -- **AbstractPluginAdapter** --
        ~**final** void unregister ()
        -- **ObservablePlugin** --
        +**final** void setPluginObservationExceptionHandler (PluginObservationExceptionHandlerSpi exceptionHandler)
        +void addObserver (PluginObserverSpi observer)
        +void removeObserver (PluginObserverSpi observer)
        +void clearObservers ()
        +**final** int countObservers ()
    }
    ~class "**final** ObservableLocalPluginAdapter" as ObservableLocalPluginAdapter extends AbstractObservableLocalPluginAdapter {
        --
        ~ObservableLocalPluginAdapter (<back:pink>ObservablePluginSpi</back> observablePluginSpi)

        ~boolean isMonitoring ()
        -- **ObservablePlugin** --
        +void addObserver (PluginObserverSpi observer)
        +void removeObserver (PluginObserverSpi observer)
        +void clearObservers ()
    }
    ~class "<<<back:pink>AutonomousObservablePluginApi</back>>>\n**final** AutonomousObservableLocalPluginAdapter" as AutonomousObservableLocalPluginAdapter extends AbstractObservableLocalPluginAdapter {
        --
        ~AutonomousObservableLocalPluginAdapter (
            \t<back:pink>AutonomousObservablePluginSpi</back> autonomousObservablePluginSpi)
        -- **AutonomousObservablePluginApi** --
        +void onReaderConnected (Set<<back:pink>ReaderSpi</back>> readers)
        +void onReaderDisconnected (Set<String> readerNames)
    }
    ~class "<<ObservablePlugin>>\n<<<back:plum>ObservableRemotePluginApi</back>>>\n**final** ObservableRemotePluginAdapter" as ObservableRemotePluginAdapter extends RemotePluginAdapter {
        --
        ~ObservableRemotePluginAdapter (<back:plum>ObservableRemotePluginSpi</back> observableRemotePluginSpi)
        -- **AbstractPluginAdapter** --
        ~void unregister ()
        -- **ObservablePlugin** --
        +void setPluginObservationExceptionHandler (PluginObservationExceptionHandlerSpi exceptionHandler)
        +void addObserver (PluginObserverSpi observer)
        +void removeObserver (PluginObserverSpi observer)
        +void clearObservers ()
        +int countObservers ()
        -- **ObservableRemotePluginApi** --
        +void addRemoteReader (<back:plum>RemoteReaderSpi</back> remoteReaderSpi, int clientCoreApiLevel)
        +boolean removeRemoteReader (remoteReaderName)
        +void onPluginEvent (String jsonData)
    }
    ' DISTRIBUTED LOCAL SERVICE
    ~class "<<DistributedLocalService>>\n<<PluginObserverSpi>>\n<<<back:yellow>CardReaderObserverSpi</back>>>\n<<<back:orange>LocalServiceApi</back>>>\n**final** DistributedLocalServiceAdapter" as DistributedLocalServiceAdapter {
        --
        ~DistributedLocalServiceAdapter (<back:orange>LocalServiceSpi</back> localServiceSpi)

        ~void register ()
        ~void unregister ()
        -- **DistributedLocalService** --
        +String getName ()
        +<T extends <back:cyan>KeypleDistributedLocalServiceExtension</back>> T getExtension (Class<T> distributedLocalServiceExtensionClass)
        -- **PluginObserverSpi** --
        +void onPluginEvent (PluginEvent pluginEvent)
        -- **CardReaderObserverSpi** --
        +void onReaderEvent (<Back:Yellow>CardReaderEvent</Back> cardReaderEvent)
        -- **LocalServiceApi** --
        +boolean isReaderContactless (String readerName)
        +void setPoolPluginNames (String... poolPluginNames)
        +String executeLocally (String jsonData, String readerName)
    }
    ~class "**final** DistributedUtilAdapter" as DistributedUtilAdapter {
        --
        ~{static} <back:gold>JsonObject</back> executePluginServiceRemotely (
            \t<back:gold>JsonObject</back> input, <back:plum>AbstractRemotePluginSpi</back> remotePluginSpi,
            \tString pluginName, Logger logger)
        ~{static} <back:gold>JsonObject</back> executeReaderServiceRemotely (
            \t<back:gold>JsonObject</back> input, <back:plum>RemoteReaderSpi</back> remoteReaderSpi,
            \tString readerName, String pluginName, Logger logger)
        ~{static} void throwRuntimeException (Exception e)
    }
    ~enum JsonProperty {
        __
        ...
    }
    ~enum PluginService {
        __
        ...
    }
    ~enum ReaderService {
        __
        ...
    }
    ' READERS
    ~abstract class "<<<Back:Yellow>CardReader</Back>>>\n<<<back:lightGreen>ProxyReaderApi</back>>>\nAbstractReaderAdapter" as AbstractReaderAdapter {
        --
        ~AbstractReaderAdapter (String readerName, <back:cyan>KeypleReaderExtension</back> readerExtension, String pluginName, Boolean isContactless)

        ~**final** String getPluginName ()
        ~**final** <T extends <back:cyan>KeypleReaderExtension</back>> T getExtension (Class<T> readerExtensionClass)

        ~**final** List<<back:lightGreen>CardSelectionResponseApi</back>> transmitCardSelectionRequests (
            \tList<<back:yellow>CardSelector</back><?>> cardSelectors, List<<back:lightGreen>CardSelectionRequestSpi</back>> cardSelectionRequests,
            \tMultiSelectionProcessing multiSelectionProcessing, <back:lightGreen>ChannelControl</back> channelControl)

        ~**final** void checkStatus ()
        ~**final** void register ()
        ~void unregister ()

        ~{abstract} **abstract** List<<back:lightGreen>CardSelectionResponseApi</back>> processCardSelectionRequests (
            \tList<<back:yellow>CardSelector</back><?>> cardSelectors, List<<back:lightGreen>CardSelectionRequestSpi</back>> cardSelectionRequests,
            \tMultiSelectionProcessing multiSelectionProcessing, <back:lightGreen>ChannelControl</back> channelControl)
        ~{abstract} **abstract** <back:lightGreen>CardResponseApi</back> processCardRequest (<back:lightGreen>CardRequestSpi</back> cardRequest, <back:lightGreen>ChannelControl</back> channelControl)
        -- **CardReader** --
        +**final** String getName ()
        -- **ProxyReaderApi** --
        +**final** <back:lightGreen>CardResponseApi</back> transmitCardRequest (<back:lightGreen>CardRequestSpi</back> cardRequest, <back:lightGreen>ChannelControl</back> channelControl)
    }
    ~class LocalReaderAdapter extends AbstractReaderAdapter {
        --
        ~LocalReaderAdapter (<back:pink>ReaderSpi</back> readerSpi, String pluginName)

        ~**final** <back:pink>ReaderSpi</back> getReaderSpi ()
        ~**final** boolean isLogicalChannelOpen ()
        ~**final** void closeLogicalAndPhysicalChannelsSilently ()
        ~**final** void activateReaderProtocol (String physicalProtocolName, String logicalProtocolName)
        ~**final** void deactivateReaderProtocol (String physicalProtocolName)
        ~**final** String getCurrentPhysicalProtocolName ()
        -- **AbstractReaderAdapter** --
        ~void unregister ()
        ~**final** List<<back:lightGreen>CardSelectionResponseApi</back>> processCardSelectionRequests (
            \tList<<back:yellow>CardSelector</back><?>> cardSelectors,
            \tList<<back:lightGreen>CardSelectionRequestSpi</back>> cardSelectionRequests,
            \tMultiSelectionProcessing multiSelectionProcessing,
            \t<back:lightGreen>ChannelControl</back> channelControl)
        ~**final** <back:lightGreen>CardResponseApi</back> processCardRequest (
            \t<back:lightGreen>CardRequestSpi</back> cardRequest,
            \t<back:lightGreen>ChannelControl</back> channelControl)
        -- **CardReader** --
        +**final** boolean isContactless ()
        +boolean isCardPresent ()
        -- **ProxyReaderApi** --
        +**final** void releaseChannel ()
    }
    ~class RemoteReaderAdapter extends AbstractReaderAdapter {
        --
        ~RemoteReaderAdapter (<back:plum>RemoteReaderSpi</back> remoteReaderSpi, String pluginName,
            \t<back:yellow>SmartCard</back> selectedSmartCard, int clientCoreApiLevel)

        ~**final** <back:yellow>SmartCard</back> getSelectedSmartCard ()
        ~**final** int getClientCoreApiLevel ()
        -- **AbstractReaderAdapter** --
        ~**final** List<<back:lightGreen>CardSelectionResponseApi</back>> processCardSelectionRequests (
            \tList<<back:yellow>CardSelector</back><?>> cardSelectors,
            \tList<<back:lightGreen>CardSelectionRequestSpi</back>> cardSelectionRequests,
            \tMultiSelectionProcessing multiSelectionProcessing,
            \t<back:lightGreen>ChannelControl</back> channelControl)
        ~**final** <back:lightGreen>CardResponseApi</back> processCardRequest (
            \t<back:lightGreen>CardRequestSpi</back> cardRequest,
            \t<back:lightGreen>ChannelControl</back> channelControl)
        -- **CardReader** --
        +**final** boolean isContactless ()
        +**final** boolean isCardPresent ()
        -- **ProxyReaderApi** --
        +**final** void releaseChannel ()
    }
    ~class "<<<Back:Yellow>ConfigurableCardReader</Back>>>\n**final** LocalConfigurableReaderAdapter" as LocalConfigurableReaderAdapter extends LocalReaderAdapter {
        --
        ~LocalConfigurableReaderAdapter (
            \t<back:pink>ConfigurableReaderSpi</back> configurableReaderSpi,
            \tString pluginName)
        -- **ConfigurableCardReader** --
        +void activateProtocol (String physicalProtocolName, String logicalProtocolName)
        +void deactivateProtocol (String physicalProtocolName)
        +String getCurrentProtocol ()
    }
    ~class "**final** CardSelectionScenarioAdapter" as CardSelectionScenarioAdapter {
        --
        ~CardSelectionScenarioAdapter (
            \tList<<back:yellow>CardSelector</back><?>> cardSelectors,
            \tList<<back:lightGreen>CardSelectionRequestSpi</back>> cardSelectionRequests,
            \tMultiSelectionProcessing multiSelectionProcessing,
            \t<back:lightGreen>ChannelControl</back> channelControl)

        ~List<<back:yellow>CardSelector</back><?>> getCardSelectors()
        ~List<<back:lightGreen>CardSelectionRequestSpi</back>> getCardSelectionRequests ()
        ~MultiSelectionProcessing getMultiSelectionProcessing ()
        ~<back:lightGreen>ChannelControl</back> getChannelControl ()
    }
    ~class "<<<Back:Yellow>ObservableCardReader</Back>>>\n<<<back:pink>CardInsertionWaiterAsynchronousApi</back>>>\n<<<back:pink>CardRemovalWaiterAsynchronousApi</back>>>\nObservableLocalReaderAdapter" as ObservableLocalReaderAdapter extends LocalReaderAdapter {
        --
        ~ObservableLocalReaderAdapter (<back:pink>ObservableReaderSpi</back> observableReaderSpi, String pluginName)

        ~**final** <back:pink>ObservableReaderSpi</back> getObservableReaderSpi ()
        ~**final** <back:yellow>CardReaderObservationExceptionHandlerSpi</back> getObservationExceptionHandler ()
        ~**final** <back:yellow>DetectionMode</back> getDetectionMode ()
        ~**final** boolean isCardPresentPing ()

        ~**final** <Back:Yellow>CardReaderEvent</Back> processCardInserted ()
        ~**final** <Back:Yellow>CardReaderEvent</Back> processCardRemoved ()
        ~**final** void notifyObservers (<Back:Yellow>CardReaderEvent</Back> event)

        ~**final** void scheduleCardSelectionScenario (
            \tCardSelectionScenarioAdapter cardSelectionScenario, <back:yellow>NotificationMode</back> notificationMode)
        -- **AbstractReaderAdapter** --
        ~**final** void unregister ()
        -- **CardReader** --
        +**final** boolean isCardPresent ()
        -- **ObservableCardReader** --
        +**final** void setReaderObservationExceptionHandler (<back:yellow>CardReaderObservationExceptionHandlerSpi</back> exceptionHandler)
        +**final** void addObserver (<back:yellow>CardReaderObserverSpi</back> observer)
        +**final** void removeObserver (<back:yellow>CardReaderObserverSpi</back> observer)
        +**final** int countObservers ()
        +**final** void clearObservers ()
        +**final** void startCardDetection (<back:yellow>DetectionMode</back> detectionMode)
        +**final** void stopCardDetection ()
        +**final** void finalizeCardProcessing ()
        -- **CardInsertionWaiterAsynchronousApi** --
        +**final** void onCardInserted ()
        -- **CardRemovalWaiterAsynchronousApi** --
        +**final** void onCardRemoved ()
    }
    ~class "<<<Back:Yellow>ConfigurableCardReader</Back>>>\n**final** ObservableLocalConfigurableReaderAdapter" as ObservableLocalConfigurableReaderAdapter extends ObservableLocalReaderAdapter {
        --
        ~ObservableLocalConfigurableReaderAdapter (
            \t<back:pink>ConfigurableReaderSpi</back> configurableReaderSpi,
            \tString pluginName)
        -- **ConfigurableCardReader** --
        +void activateProtocol (String physicalProtocolName, String logicalProtocolName)
        +void deactivateProtocol (String physicalProtocolName)
        +String getCurrentProtocol ()
}
    ~class "<<<Back:Yellow>ObservableCardReader</Back>>>\n**final** ObservableRemoteReaderAdapter" as ObservableRemoteReaderAdapter extends RemoteReaderAdapter {
        --
        ~ObservableRemoteReaderAdapter (<back:plum>ObservableRemoteReaderSpi</back> remoteReaderSpi, String pluginName, int clientCoreApiLevel)

        ~void notifyObservers (<Back:Yellow>CardReaderEvent</Back> event)

        ~void scheduleCardSelectionScenario (CardSelectionScenarioAdapter cardSelectionScenario,
            \t<back:yellow>NotificationMode</back> notificationMode)
        -- **AbstractReaderAdapter** --
        ~void unregister ()
        -- **ObservableCardReader** --
        +void setReaderObservationExceptionHandler (<back:yellow>CardReaderObservationExceptionHandlerSpi</back> exceptionHandler)
        +void addObserver (<back:yellow>CardReaderObserverSpi</back> observer)
        +void removeObserver (<back:yellow>CardReaderObserverSpi</back> observer)
        +int countObservers ()
        +void clearObservers ()
        +void startCardDetection (<back:yellow>DetectionMode</back> detectionMode)
        +void stopCardDetection ()
        +void finalizeCardProcessing ()
    }

    ' Plugin & Reader events
    ~class "<<PluginEvent>>\n**final** PluginEventAdapter" as PluginEventAdapter {
        --
        ~PluginEventAdapter (String pluginName, String readerName, PluginEvent.Type type)
        ~PluginEventAdapter (String pluginName, Set<String> readerNames, PluginEvent.Type type)
        -- **PluginEvent** --
        +String getPluginName ()
        +SortedSet<String> getReaderNames ()
        +PluginEvent.Type getType ()
    }
    ~class "<<<Back:Yellow>CardReaderEvent</Back>>>\n**final** ReaderEventAdapter" as ReaderEventAdapter {
        --
        ~ReaderEventAdapter (String pluginName, String readerName, <back:yellow>CardReaderEvent.Type</back> type,
            \t<back:yellow>ScheduledCardSelectionsResponse</back> scheduledCardSelectionsResponse)

        ~String getPluginName ()
        -- **CardReaderEvent** --
        +String getReaderName ()
        +<back:yellow>CardReaderEvent.Type</back> getType ()
        +<back:yellow>ScheduledCardSelectionsResponse</back> getScheduledCardSelectionsResponse ()
    }

    ' FSM
    ~class "**final** FsmService" as FsmService {
        --
        ~FsmService (ObservableLocalReaderAdapter reader)

        ~int getId ()
        ~synchronized void fire (Trigger trigger)
        ~synchronized void switchState (FsmState.StateId targetStateId)
        ~void shutdown ()
    }
    ~enum "Trigger" as FsmTrigger {
        CARD_INSERTED
        CARD_REMOVED
        CARD_PROCESSING_ENDED
        CARD_DETECTION_START_REQUESTED
        CARD_DETECTION_STOP_REQUESTED
    }
    ~interface FsmJob {
        ~void initialize (FsmState state, <back:pink>ObservableReaderSpi</back> readerSpi)
        ~Runnable getTask ()
        ~void stop ()
    }
    ~abstract class FsmState {
        --
        ~FsmState (FsmState.StateId stateId, FsmService service,\n\tObservableLocalReaderAdapter reader,\n\tFsmJob monitoringJob, ExecutorService executorService)

        ~**final** FsmState.StateId getStateId ()
        ~**final** ObservableLocalReaderAdapter getReader ()
        ~**final** int getServiceId ()
        ~**final** void switchState (FsmState.StateId targetStateId)
        ~**final** void fire (FsmService.Trigger trigger)
        ~void onActivate ()
        ~**final** void onDeactivate ()
        ~{abstract} **abstract** void onTrigger (FsmService.Trigger trigger)
        ~**final** void onError (Throwable throwable)
    }
    ~enum "StateId" as FsmStateId {
        WAIT_FOR_START_DETECTION
        WAIT_FOR_CARD_INSERTION
        WAIT_FOR_CARD_PROCESSING
        WAIT_FOR_CARD_REMOVAL
    }
    ~class "**final** FsmJobActive" as FsmJobActive implements FsmJob {
        --
        ~FsmJobActive (long sleepDurationMillis)
        -- **FsmJob** --
        ~void initialize (FsmState state, <back:pink>ObservableReaderSpi</back> readerSpi)
        ~Runnable getTask ()
        ~void stop ()
    }
    ~class "**final** FsmJobPassive" as FsmJobPassive implements FsmJob {
        --
        ~FsmJobPassive ()
        -- **FsmJob** --
        ~void initialize (FsmState state, <back:pink>ObservableReaderSpi</back> readerSpi)
        ~Runnable getTask ()
        ~void stop ()
    }
    ~class "**final** FsmStateWaitForStartDetection" as FsmStateWaitForStartDetection extends FsmState {
        --
        ~FsmStateWaitForStartDetection (FsmService service,\n\tObservableLocalReaderAdapter reader)
        ~FsmStateWaitForStartDetection (FsmService service,\n\tObservableLocalReaderAdapter reader,\n\tFsmJob monitoringJob,\n\tExecutorService executorService)
        -- **FsmState** --
        ~void onActivate ()
        ~void onTrigger (FsmService.Trigger trigger)
    }
    ~class "**final** FsmStateWaitForCardInsertion" as FsmStateWaitForCardInsertion extends FsmState {
        --
        ~FsmStateWaitForCardInsertion (FsmService service,\n\tObservableLocalReaderAdapter reader)
        ~FsmStateWaitForCardInsertion (FsmService service,\n\tObservableLocalReaderAdapter reader,\n\tFsmJob monitoringJob,\n\tExecutorService executorService)
        -- **FsmState** --
        ~void onActivate ()
        ~void onTrigger (FsmService.Trigger trigger)
    }
    ~class "**final** FsmStateWaitForCardProcessing" as FsmStateWaitForCardProcessing extends FsmState {
        --
        ~FsmStateWaitForCardProcessing (FsmService service,\n\tObservableLocalReaderAdapter reader)
        ~FsmStateWaitForCardProcessing (FsmService service,\n\tObservableLocalReaderAdapter reader,\n\tFsmJob monitoringJob,\n\tExecutorService executorService)
        -- **FsmState** --
        ~void onTrigger (FsmService.Trigger trigger)
    }
    ~class "**final** FsmStateWaitForCardRemoval" as FsmStateWaitForCardRemoval extends FsmState {
        --
        ~FsmStateWaitForCardRemoval (FsmService service,\n\tObservableLocalReaderAdapter reader)
        ~FsmStateWaitForCardRemoval (FsmService service,\n\tObservableLocalReaderAdapter reader,\n\tFsmJob monitoringJob,\n\tExecutorService executorService)
        -- **FsmState** --
        ~void onTrigger (FsmService.Trigger trigger)
    }

    ' ADAPTERS
    ~class "<<<back:yellow>ReaderApiFactory</back>>>\n**final** ReaderApiFactoryAdapter" as ReaderApiFactoryAdapter {
        --
        ~ReaderApiFactoryAdapter (<color:blue><back:yellow>CardReaderProvider</back></color>)
        -- **ReaderApiFactory** --
        +<color:blue><back:yellow>CardReaderProvider</back> getCardReaderProvider ()
        +<back:yellow>CardSelectionManager</back> createCardSelectionManager ()
        +<back:yellow>BasicCardSelector</back> createBasicCardSelector ()
        +<back:yellow>IsoCardSelector</back> createIsoCardSelector ()
        +<color:blue><back:yellow>CardDetectionSettings</back> createCardDetectionSettings ()
    }
    ~class "<<<back:yellow>CardSelectionManager</back>>>\n**final** CardSelectionManagerAdapter" as CardSelectionManagerAdapter {
        --
        ~CardSelectionManagerAdapter (MultiSelectionProcessing multiSelectionProcessing)
        -- **CardSelectionManager** --
        +void setMultipleSelectionMode ()
        +int prepareSelection (<back:yellow>CardSelector</back><?> cardSelector, <back:yellow>CardSelectionExtension</back> cardSelectionExtension)
        +void prepareReleaseChannel ()
        +String exportCardSelectionScenario ()
        +int importCardSelectionScenario (String cardSelectionScenario)
        +<back:yellow>CardSelectionResult</back> processCardSelectionScenario (<back:yellow>CardReader</back> reader)
        +void scheduleCardSelectionScenario (<back:yellow>ObservableCardReader</back> observableCardReader, <back:yellow>NotificationMode</back> notificationMode)
        +<back:yellow>CardSelectionResult</back> parseScheduledCardSelectionsResponse (ScheduledCardSelectionsResponseAdapter scheduledCardSelectionsResponse)
        +String exportProcessedCardSelectionScenario ()
        +<back:yellow>CardSelectionResult</back> importProcessedCardSelectionScenario (String processedCardSelectionScenario)
    }
    ~class "<<<back:yellow>ScheduledCardSelectionsResponse</back>>>\n**final** ScheduledCardSelectionsResponseAdapter" as ScheduledCardSelectionsResponseAdapter {
        --
        ~ScheduledCardSelectionsResponseAdapter (
            \tList<<back:lightGreen>CardSelectionResponseApi</back>> cardSelectionResponses)

        ~List<<back:lightGreen>CardSelectionResponseApi</back>> getCardSelectionResponses ()
    }
    ~class "<<<back:yellow>CardSelectionResult</back>>>\n**final** CardSelectionResultAdapter" as CardSelectionResultAdapter {
        --
        ~CardSelectionResultAdapter ()

        ~void addSmartCard (int selectionIndex, <back:yellow>SmartCard</back> smartCard)
        -- **CardSelectionResult** --
        +Map<Integer, <back:yellow>SmartCard</back>> getSmartCards ()
        +<back:yellow>SmartCard</back> getActiveSmartCard ()
        +int getActiveSelectionIndex ()
    }

    ' RESPONSE
    together {
        ~class "<<<back:lightGreen>CardSelectionResponseApi</back>>>\n**final** CardSelectionResponseAdapter" as CardSelectionResponseAdapter {
            --
            ~CardSelectionResponseAdapter (
                \tbyte[] powerOnData,
                \t<back:lightGreen>ApduResponseApi</back> selectApplicationResponse,
                \tboolean hasMatched,
                \t<back:lightGreen>CardResponseApi</back> cardResponseApi)
            -- **CardSelectionResponseApi** --
            +String getPowerOnData ()
            +<back:lightGreen>ApduResponseApi</back> getSelectApplicationResponse ()
            +boolean hasMatched ()
            +<back:lightGreen>CardResponseApi</back> getCardResponse ()
        }
        ~class "<<<back:lightGreen>CardResponseApi</back>>>\n**final** CardResponseAdapter" as CardResponseAdapter {
            --
            ~CardResponseAdapter (List<<back:lightGreen>ApduResponseApi</back>> apduResponses,
                \tboolean isLogicalChannelOpen)
            -- **CardResponseApi** --
            +List<<back:lightGreen>ApduResponseApi</back>> getApduResponses ()
            +boolean isLogicalChannelOpen ()
        }
        ~class "<<<back:lightGreen>ApduResponseApi</back>>>\n**final** ApduResponseAdapter" as ApduResponseAdapter {
            --
            ~ApduResponseAdapter (byte[] bytes)
            -- **ApduResponseApi** --
            +byte[] getApdu ()
            +byte[] getDataOut ()
            +int getStatusWord ()
        }
    }
}

' Associations

SmartCardServiceProvider ..> SmartCardServiceAdapter #C_LINK : provide >

SmartCardServiceAdapter *-- "0..N" AbstractPluginAdapter #C_LINK
SmartCardServiceAdapter *-- "0..N" DistributedLocalServiceAdapter #C_LINK

DistributedUtilAdapter +-- JsonProperty
DistributedUtilAdapter +-- PluginService
DistributedUtilAdapter +-- ReaderService

AbstractObservableLocalPluginAdapter *-- "1" ObservationManagerAdapter #C_LINK

ObservableRemotePluginAdapter *-- "1" ObservationManagerAdapter #C_LINK

ObservableLocalReaderAdapter *-- "1" ObservationManagerAdapter #C_LINK
ObservableLocalReaderAdapter "1" *---* "1" FsmService #C_LINK
ObservableLocalReaderAdapter ..> CardSelectionScenarioAdapter #C_USE : use >

FsmService +-right- FsmTrigger
FsmService "1" *--* "1..N" FsmState #C_LINK

FsmState *-up-- "1" ObservableLocalReaderAdapter #C_LINK
FsmState +-right- FsmStateId
FsmState "1" *---* "0..1" FsmJob #C_LINK

AbstractPluginAdapter *-- "0..N" AbstractReaderAdapter #C_LINK

ObservableRemoteReaderAdapter *-- "1" ObservationManagerAdapter #C_LINK
ObservableRemoteReaderAdapter ..> CardSelectionScenarioAdapter #C_USE : use >

SmartCardServiceAdapter .right.> ReaderApiFactoryAdapter #C_LINK : create >

ReaderApiFactoryAdapter .left.> SmartCardServiceAdapter #C_LINK : provide >
ReaderApiFactoryAdapter .up.> CardSelectionManagerAdapter #C_LINK : create >
ReaderApiFactoryAdapter .up.> BasicCardSelectorAdapter #C_LINK : create >
ReaderApiFactoryAdapter .up.> IsoCardSelectorAdapter #C_LINK : create >
ReaderApiFactoryAdapter .up.> CardDetectionSettingsAdapter #C_LINK : create >

CardSelectionManagerAdapter ..> CardSelectionResultAdapter #C_LINK : create >
CardSelectionManagerAdapter ..> ScheduledCardSelectionsResponseAdapter #C_USE : use >

CardSelectionResponseAdapter *-- "0..1" ApduResponseAdapter #C_LINK
CardSelectionResponseAdapter *-- "1" CardResponseAdapter #C_LINK

CardResponseAdapter *-- "1..N" ApduResponseAdapter #C_LINK

' == LAYOUT ==

ObservationManagerAdapter -[hidden]- PluginEventAdapter
PluginEventAdapter -[hidden]- ReaderEventAdapter
ReaderEventAdapter -[hidden]- CardSelectionResponseAdapter

' == STYLE ==

package service #C_GREY1 {}

enum service.MultiSelectionProcessing <<blue>>

class service.JsonAdapter <<blue>>
class service.InternalDto <<blue>>
class service.InternalLegacyDto <<blue>>
interface service.InternalCardSelector <<blue>>
interface service.InternalIsoCardSelector <<blue>>
class service.BasicCardSelectorAdapter <<blue>>
class service.IsoCardSelectorAdapter <<blue>>
class service.CardDetectionSettingsAdapter <<blue>>
class service.SmartCardServiceAdapter <<blue>>
abstract class service.AbstractReaderAdapter <<blue>>
class service.LocalReaderAdapter <<blue>>
class service.LocalConfigurableReaderAdapter <<blue>>
class service.RemoteReaderAdapter <<blue>>
class service.ObservableLocalReaderAdapter <<blue>>
class service.ObservableLocalConfigurableReaderAdapter <<blue>>
class service.ObservableRemoteReaderAdapter <<blue>>
class service.CardSelectionScenarioAdapter <<blue>>
class service.FsmService <<blue>>
enum service.FsmTrigger <<blue>>
interface service.FsmJob <<blue>>
abstract class service.FsmState <<blue>>
enum service.FsmStateId <<blue>>
class service.FsmJobActive <<blue>>
class service.FsmJobPassive <<blue>>
class service.FsmStateWaitForStartDetection <<blue>>
class service.FsmStateWaitForCardInsertion <<blue>>
class service.FsmStateWaitForCardProcessing <<blue>>
class service.FsmStateWaitForCardRemoval <<blue>>

class service.ObservationManagerAdapter <<blue>>

abstract class service.AbstractPluginAdapter <<blue>>
class service.LocalPluginAdapter <<blue>>
class service.RemotePluginAdapter <<blue>>
class service.LocalPoolPluginAdapter <<blue>>
class service.RemotePoolPluginAdapter <<blue>>
abstract class service.AbstractObservableLocalPluginAdapter <<blue>>
class service.ObservableLocalPluginAdapter <<blue>>
class service.AutonomousObservableLocalPluginAdapter <<blue>>
class service.ObservableRemotePluginAdapter <<blue>>

class service.DistributedLocalServiceAdapter <<blue>>
class service.DistributedUtilAdapter <<blue>>
enum service.JsonProperty <<blue>>
enum service.PluginService <<blue>>
enum service.ReaderService <<blue>>

class service.ReaderApiFactoryAdapter <<blue>>
class service.CardSelectionManagerAdapter <<blue>>
class service.CardSelectionResultAdapter <<blue>>
class service.ScheduledCardSelectionsResponseAdapter <<blue>>

class service.CardSelectionResponseAdapter <<blue>>
class service.CardResponseAdapter <<blue>>
class service.ApduResponseAdapter <<blue>>

class service.PluginEventAdapter <<blue>>
class service.ReaderEventAdapter <<blue>>

@enduml